<svg id="Layer_1" enable-background="new 0 0 100 100" viewBox="0 0 100 100" xmlns="http://www.w3.org/2000/svg"><path d="m97.5 78.8699951c0 10.2799072-8.3400879 18.6300049-18.6098633 18.6300049-10.2802734 0-18.630127-8.3500977-18.630127-18.6300049 0-1.4899902.1699219-2.9500732.5200195-4.3800049l-25.290039-12.6400146c-3.4899902 4.2600098-8.6999511 6.7600098-14.3801269 6.7600098-10.2597666 0-18.6098645-8.3399659-18.6098645-18.6099854s8.3500977-18.6099854 18.6098652-18.6099854c5.6801758 0 10.8901367 2.5 14.380127 6.7399902l25.2900383-12.6300048c-.3500977-1.4299316-.5200195-2.8900146-.5200195-4.3900146 0-10.2600088 8.3498535-18.6099834 18.630127-18.6099834 10.2597655-.0000008 18.6098632 8.3699941 18.6098632 18.6300029s-8.3400879 18.6099854-18.6098633 18.6099854c-5.6801758 0-10.8901367-2.5200195-14.380127-6.7700195l-25.290039 12.6500243c.3500977 1.4100342.5200195 2.8900147.5200195 4.3800049s-.1699219 2.9599609-.5200195 4.3699951l25.2900391 12.6600342c3.4899902-4.25 8.6999512-6.7700195 14.380127-6.7700195 10.2597655 0 18.6098632 8.3399658 18.6098632 18.6099853z"/></svg>