<svg xmlns="http://www.w3.org/2000/svg" width="512.06" height="511.99" viewBox="0 0 512.06 511.99"><title>header-call-icon</title><path d="M498.64,395,395,325.89a30.24,30.24,0,0,0-40.5,6.58l-30.2,38.82a12.9,12.9,0,0,1-16.54,3.48L302,371.6c-19-10.37-42.73-23.29-90.46-71s-60.67-71.45-71-90.45l-3.15-5.74a12.92,12.92,0,0,1,3.42-16.61l38.79-30.18a30.27,30.27,0,0,0,6.59-40.51L117,13.42A30.11,30.11,0,0,0,76.46,4.29l-43.34,26A61.09,61.09,0,0,0,5.24,66.51c-15.6,56.86-3.86,155,140.71,299.6C261,481.11,346.57,512,405.41,512a151.79,151.79,0,0,0,40.11-5.24,61.11,61.11,0,0,0,36.18-27.88l26.06-43.32A30.11,30.11,0,0,0,498.64,395Zm-5.58,31.83-26,43.34a44.11,44.11,0,0,1-26,20.17c-52.5,14.42-144.21,2.48-283-136.32S7.29,123.53,21.7,71A44.26,44.26,0,0,1,41.9,45L85.24,19a13.06,13.06,0,0,1,17.61,4l37.54,56.37,31.52,47.27a13.14,13.14,0,0,1-2.85,17.58l-38.8,30.18a29.86,29.86,0,0,0-7.91,38.33l3.08,5.6c10.9,20,24.46,44.88,74,94.38s74.38,63,94.37,74l5.61,3.09a29.88,29.88,0,0,0,38.33-7.91L367.88,343a13.14,13.14,0,0,1,17.58-2.85L489.1,409.23a13.06,13.06,0,0,1,4,17.61Z" transform="translate(0 0)" fill="#ffbf00"/><path d="M290.16,85.36A145.24,145.24,0,0,1,435.23,230.43a8.53,8.53,0,0,0,17.06,0A162.31,162.31,0,0,0,290.16,68.29a8.54,8.54,0,0,0,0,17.07Z" transform="translate(0 0)" fill="#ffbf00"/><path d="M290.16,136.56A94,94,0,0,1,384,230.43a8.53,8.53,0,0,0,17.06,0h0a111.06,111.06,0,0,0-110.9-110.94,8.54,8.54,0,0,0,0,17.07Z" transform="translate(0 0)" fill="#ffbf00"/><path d="M290.16,187.76a42.73,42.73,0,0,1,42.67,42.67,8.53,8.53,0,1,0,17.06,0h0a59.79,59.79,0,0,0-59.73-59.74,8.54,8.54,0,0,0,0,17.07Z" transform="translate(0 0)" fill="#ffbf00"/></svg>