<svg xmlns="http://www.w3.org/2000/svg" width="511.94" height="512" viewBox="0 0 511.94 512"><title>pdf</title><path d="M370.37,428.2a44.5,44.5,0,0,1,25.86-23.68V362a45.05,45.05,0,0,1,45-45H467a44.85,44.85,0,0,1,15,2.58V45A45.05,45.05,0,0,0,437,0H137A45.05,45.05,0,0,0,92,45V67H350a60.07,60.07,0,0,1,60,60V267a60.07,60.07,0,0,1-60,60H92V467a45.05,45.05,0,0,0,45,45H407.7l-30.61-35.71a44.57,44.57,0,0,1-6.72-48.09Z" fill="#ea5501"/><path d="M497,432H482V362a15,15,0,0,0-15-15H441.23a15,15,0,0,0-15,15v70h-15a15,15,0,0,0-11.39,24.76l42.85,50a15,15,0,0,0,21.15,1.63,15.68,15.68,0,0,0,1.63-1.63l42.86-50A15,15,0,0,0,497,432Z" fill="#ea5501"/><path d="M192,157H173.7v39.89c0,9.16.06,28.28.1,40.06,6.49,0,14.52-.09,18.81-.17,20.42-.36,29.72-20.87,29.72-39.78C222.39,177.66,214.41,157,192,157Z" fill="#ea5501"/><path d="M94.92,157H77.1v18.22c0,4.15,0,11.93.07,18.29,6.17,0,13.64-.07,17.71-.07,10.17,0,18.77-8.34,18.77-18.22S105.09,157,94.92,157Z" fill="#ea5501"/><path d="M380,267V127a30,30,0,0,0-30-30H30A30,30,0,0,0,0,127V267a30,30,0,0,0,30,30H350a30,30,0,0,0,30-30ZM94.92,213.44c-4.08,0-11.66,0-17.85.07V247a10,10,0,0,1-20,0V147a10,10,0,0,1,10-10H94.92c21.38,0,38.77,17.15,38.77,38.22S116.3,213.44,94.92,213.44Zm134.73,24.71A46.45,46.45,0,0,1,193,256.78c-8.06.14-28.23.22-29.09.22h0a10,10,0,0,1-10-10c0-.37-.13-36.4-.13-50.15,0-11.4-.07-49.87-.07-49.87a10,10,0,0,1,10-10H192c30.14,0,50.38,24.11,50.38,60,0,15.81-4.52,30.42-12.74,41.15ZM312.93,157H282.39v29.05h27.32a10,10,0,0,1,0,20H282.39V247a10,10,0,0,1-20,0V147a10,10,0,0,1,10-10h40.54a10,10,0,0,1,0,20Z" fill="#ea5501"/></svg>