<svg xmlns="http://www.w3.org/2000/svg" width="459.8" height="512" viewBox="0 0 459.8 512"><title>doc</title><path d="M42.6,472.33c7.32,23,28.66,39.67,53.75,39.67H363.49c25.09,0,46.4-16.67,53.75-39.67Z" transform="translate(-0.02)" fill="#ea5501"/><path d="M403.44,82.26,337.73,16.55A57.42,57.42,0,0,0,329,9.37v81.3A3.37,3.37,0,0,0,332.33,94h80.14A56.58,56.58,0,0,0,403.44,82.26Z" transform="translate(-0.02)" fill="#ea5501"/><path d="M420,124H332.33a33.4,33.4,0,0,1-33.41-33.33V0H96.35a56.56,56.56,0,0,0-56.5,56.5V210.6H420V124Z" transform="translate(-0.02)" fill="#ea5501"/><path d="M230.24,305.66q-13.73,0-13.73,15.41v40.86q0,15.42,13.73,15.41t13.87-15.41V321.07Q244.11,305.67,230.24,305.66Z" transform="translate(-0.02)" fill="#ea5501"/><path d="M421.92,240.6h-384A38,38,0,0,0,0,278.51V404.42a38,38,0,0,0,37.9,37.91h384a38,38,0,0,0,37.9-37.91V278.51A38,38,0,0,0,421.92,240.6ZM178.44,361q0,18.81-10.33,27.6t-27.6,8.78H113.23a12.39,12.39,0,0,1-7.56-2.15,6.25,6.25,0,0,1-2.93-5.09V291.93a6.23,6.23,0,0,1,2.93-5.08,12.4,12.4,0,0,1,7.56-2.16h27.28q17.27,0,27.6,8.79t10.33,27.59Zm89.72.93q0,18.81-10.33,27.59t-27.59,8.79q-17.12,0-27.45-8.79t-10.32-27.59V321.07q0-18.81,10.32-27.59t27.45-8.79q17.25,0,27.59,8.79t10.33,27.59Zm52.26,15.41a16.53,16.53,0,0,0,7.17-1.38,8.19,8.19,0,0,0,4.08-4.24,26,26,0,0,0,1.62-4.71,48.42,48.42,0,0,0,.69-5.08q.61-7.24,11.88-7.25c4.41,0,7.55.8,9.4,2.39s2.77,4.6,2.77,9q0,15-10.87,23.59t-27.82,8.63q-16.5,0-26.75-8.79t-10.25-27.59V321.07q0-18.79,10.25-27.59t26.75-8.79q16.95,0,27.82,8.17T358,315.37q0,6.63-2.77,9T346,326.76q-11.56,0-12-7.25-.45-13.87-13.72-13.87-13.87,0-13.87,15.41v40.86Q306.39,377.35,320.42,377.34Z" transform="translate(-0.02)" fill="#ea5501"/><path d="M140.51,305.66H126.79v70.76h13.72q13.88,0,13.88-15.42V321.07Q154.39,305.67,140.51,305.66Z" transform="translate(-0.02)" fill="#ea5501"/></svg>