<svg xmlns="http://www.w3.org/2000/svg" width="512" height="384" viewBox="0 0 512 384"><title>blog-quotation</title><path d="M320,384H464a48.05,48.05,0,0,0,48-48V192a48.05,48.05,0,0,0-48-48H399.41L423.7,19A16,16,0,0,0,411,.28,16.75,16.75,0,0,0,408,0H356.16a32.1,32.1,0,0,0-30.49,22.28L279.09,132.77a16.3,16.3,0,0,0-.67,1.93A176.07,176.07,0,0,0,272,181.81V336A48.05,48.05,0,0,0,320,384Z" fill="#ffbf00"/><path d="M48,384H192a48.05,48.05,0,0,0,48-48V192a48.05,48.05,0,0,0-48-48H127.41L151.7,19A16,16,0,0,0,139,.28,16.75,16.75,0,0,0,136,0H84.16A32.09,32.09,0,0,0,53.67,22.29L7.09,132.77a19.15,19.15,0,0,0-.67,1.93A176.07,176.07,0,0,0,0,181.81V336A48.05,48.05,0,0,0,48,384Z" fill="#ffbf00"/></svg>