<?xml version="1.0" encoding="UTF-8" standalone="no"?>
<!-- Created with Inkscape (http://www.inkscape.org/) -->

<svg
   version="1.1"
   id="svg3867"
   xml:space="preserve"
   width="682.66669"
   height="682.66669"
   viewBox="0 0 682.66669 682.66669"
   xmlns="http://www.w3.org/2000/svg"
   xmlns:svg="http://www.w3.org/2000/svg"><defs
     id="defs3871"><clipPath
       clipPathUnits="userSpaceOnUse"
       id="clipPath3893"><path
         d="M 0,512 H 512 V 0 H 0 Z"
         id="path3891" /></clipPath></defs><g
     id="g3873"
     transform="matrix(1.3333333,0,0,-1.3333333,0,682.66667)"><g
       id="g3875"
       transform="translate(305.6338,441.0781)"><path
         d="M 0,0 V -44.086"
         style="fill:none;stroke:#000000;stroke-width:15;stroke-linecap:round;stroke-linejoin:round;stroke-miterlimit:10;stroke-dasharray:none;stroke-opacity:1"
         id="path3877" /></g><g
       id="g3879"
       transform="translate(341.8193,435.0449)"><path
         d="M 0,0 V -20.547"
         style="fill:none;stroke:#000000;stroke-width:15;stroke-linecap:round;stroke-linejoin:round;stroke-miterlimit:10;stroke-dasharray:none;stroke-opacity:1"
         id="path3881" /></g><g
       id="g3883"
       transform="translate(269.4482,414.498)"><path
         d="M 0,0 V 20.547"
         style="fill:none;stroke:#000000;stroke-width:15;stroke-linecap:round;stroke-linejoin:round;stroke-miterlimit:10;stroke-dasharray:none;stroke-opacity:1"
         id="path3885" /></g><g
       id="g3887"><g
         id="g3889"
         clip-path="url(#clipPath3893)"><g
           id="g3895"
           transform="translate(471.0391,504.5205)"><path
             d="m 0,0 h -439.502 c -7.826,0 -14.17,-6.344 -14.17,-14.169 0,-7.826 6.344,-14.17 14.17,-14.17 H 0 c 7.825,0 14.169,6.344 14.169,14.17 C 14.169,-6.344 7.825,0 0,0 Z"
             style="fill:none;stroke:#000000;stroke-width:15;stroke-linecap:round;stroke-linejoin:round;stroke-miterlimit:10;stroke-dasharray:none;stroke-opacity:1"
             id="path3897" /></g><g
           id="g3899"
           transform="translate(387.9062,211.7832)"><path
             d="m 0,0 h 83.133 c 7.825,0 14.169,6.344 14.169,14.17 0,7.825 -6.344,14.169 -14.169,14.169 H 17.357"
             style="fill:none;stroke:#000000;stroke-width:15;stroke-linecap:round;stroke-linejoin:round;stroke-miterlimit:10;stroke-dasharray:none;stroke-opacity:1"
             id="path3901" /></g><g
           id="g3903"
           transform="translate(38.8213,476.1816)"><path
             d="M 0,0 V -236.06"
             style="fill:none;stroke:#000000;stroke-width:15;stroke-linecap:round;stroke-linejoin:round;stroke-miterlimit:10;stroke-dasharray:none;stroke-opacity:1"
             id="path3905" /></g><g
           id="g3907"
           transform="translate(461.041,240.1221)"><path
             d="M 0,0 V 236.06"
             style="fill:none;stroke:#000000;stroke-width:15;stroke-linecap:round;stroke-linejoin:round;stroke-miterlimit:10;stroke-dasharray:none;stroke-opacity:1"
             id="path3909" /></g><g
           id="g3911"
           transform="translate(205.8408,240.1221)"><path
             d="m 0,0 h -174.305 c -7.825,0 -14.169,-6.344 -14.169,-14.169 0,-7.826 6.344,-14.17 14.169,-14.17 H 18.698"
             style="fill:none;stroke:#000000;stroke-width:15;stroke-linecap:round;stroke-linejoin:round;stroke-miterlimit:10;stroke-dasharray:none;stroke-opacity:1"
             id="path3913" /></g><g
           id="g3915"
           transform="translate(127.0093,408.0186)"><path
             d="m 0,0 h -47.087 c -2.455,0 -4.444,1.989 -4.444,4.443 v 29.088 c 0,2.454 1.989,4.444 4.444,4.444 H 0 c 2.454,0 4.444,-1.99 4.444,-4.444 V 4.443 C 4.444,1.989 2.454,0 0,0 Z"
             style="fill:none;stroke:#000000;stroke-width:15;stroke-linecap:round;stroke-linejoin:round;stroke-miterlimit:10;stroke-dasharray:none;stroke-opacity:1"
             id="path3917" /></g><g
           id="g3919"
           transform="translate(127.0093,338.5088)"><path
             d="m 0,0 h -47.087 c -2.455,0 -4.444,1.99 -4.444,4.444 v 29.087 c 0,2.454 1.989,4.445 4.444,4.445 H 0 c 2.454,0 4.444,-1.991 4.444,-4.445 V 4.444 C 4.444,1.99 2.454,0 0,0 Z"
             style="fill:none;stroke:#000000;stroke-width:15;stroke-linecap:round;stroke-linejoin:round;stroke-miterlimit:10;stroke-dasharray:none;stroke-opacity:1"
             id="path3921" /></g><g
           id="g3923"
           transform="translate(127.0093,269)"><path
             d="m 0,0 h -47.087 c -2.455,0 -4.444,1.989 -4.444,4.443 v 29.088 c 0,2.454 1.989,4.444 4.444,4.444 H 0 c 2.454,0 4.444,-1.99 4.444,-4.444 V 4.443 C 4.444,1.989 2.454,0 0,0 Z"
             style="fill:none;stroke:#000000;stroke-width:15;stroke-linecap:round;stroke-linejoin:round;stroke-miterlimit:10;stroke-dasharray:none;stroke-opacity:1"
             id="path3925" /></g><g
           id="g3927"
           transform="translate(401.9092,313.5166)"><path
             d="m 0,0 h -192.551 c -7.142,0 -12.932,5.789 -12.932,12.932 0,7.142 5.79,12.932 12.932,12.932 H 0 c 7.143,0 12.933,-5.79 12.933,-12.932 C 12.933,5.789 7.143,0 0,0 Z"
             style="fill:none;stroke:#000000;stroke-width:15;stroke-linecap:round;stroke-linejoin:round;stroke-miterlimit:10;stroke-dasharray:none;stroke-opacity:1"
             id="path3929" /></g><g
           id="g3931"
           transform="translate(399.041,339.3809)"><path
             d="m 0,0 v 12.921 c 0,49.346 -40.002,89.348 -89.347,89.348 h -8.121 c -49.345,0 -89.347,-40.002 -89.347,-89.348 V 0"
             style="fill:none;stroke:#000000;stroke-width:15;stroke-linecap:round;stroke-linejoin:round;stroke-miterlimit:10;stroke-dasharray:none;stroke-opacity:1"
             id="path3933" /></g><g
           id="g3935"
           transform="translate(209.9434,313.5166)"><path
             d="m 0,0 c -0.769,-1.736 -1.204,-3.653 -1.204,-5.674 v -15.557 c 0,-7.753 6.286,-14.039 14.039,-14.039 h 5.309 c 0.438,-20.374 9,-39.985 24.467,-53.303 12.452,-10.722 29.957,-20.081 53.079,-20.339 23.123,0.258 40.627,9.617 53.08,20.339 15.467,13.318 24.029,32.929 24.466,53.303 h 5.31 c 7.753,0 14.039,6.286 14.039,14.039 v 15.557 c 0,2.021 -0.436,3.938 -1.204,5.674"
             style="fill:none;stroke:#000000;stroke-width:15;stroke-linecap:round;stroke-linejoin:round;stroke-miterlimit:10;stroke-dasharray:none;stroke-opacity:1"
             id="path3937" /></g><g
           id="g3939"
           transform="translate(305.6338,7.4795)"><path
             d="m 0,0 v 45.285 c 0,12.726 -3.926,25.131 -11.249,35.539 -21.018,29.873 -64.143,92.66 -64.143,92.662"
             style="fill:none;stroke:#000000;stroke-width:15;stroke-linecap:round;stroke-linejoin:round;stroke-miterlimit:10;stroke-dasharray:none;stroke-opacity:1"
             id="path3941" /></g><g
           id="g3943"
           transform="translate(161.5215,165.7754)"><path
             d="m 0,0 5.02,-16.787 c 8.192,-28.215 12.35,-57.447 12.35,-86.828 v -54.681"
             style="fill:none;stroke:#000000;stroke-width:15;stroke-linecap:round;stroke-linejoin:round;stroke-miterlimit:10;stroke-dasharray:none;stroke-opacity:1"
             id="path3945" /></g><g
           id="g3947"
           transform="translate(305.6338,7.4795)"><path
             d="m 0,0 v 45.285 c 0,12.726 3.926,25.131 11.249,35.539 21.018,29.873 64.143,92.66 64.144,92.662"
             style="fill:none;stroke:#000000;stroke-width:15;stroke-linecap:round;stroke-linejoin:round;stroke-miterlimit:10;stroke-dasharray:none;stroke-opacity:1"
             id="path3949" /></g><g
           id="g3951"
           transform="translate(449.7461,165.7754)"><path
             d="m 0,0 -5.02,-16.787 c -8.192,-28.215 -12.35,-57.447 -12.35,-86.828 v -54.681"
             style="fill:none;stroke:#000000;stroke-width:15;stroke-linecap:round;stroke-linejoin:round;stroke-miterlimit:10;stroke-dasharray:none;stroke-opacity:1"
             id="path3953" /></g><g
           id="g3955"
           transform="translate(116.6343,61.583)"><path
             d="m 0,0 v -31.043 c 0,-12.736 10.325,-23.061 23.062,-23.061 h 331.875 c 12.737,0 23.062,10.325 23.062,23.061 v 76.288 c 0,35.431 -23.336,53.187 -57.326,63.193 l -90.011,17.504 v 29.071"
             style="fill:none;stroke:#000000;stroke-width:15;stroke-linecap:round;stroke-linejoin:round;stroke-miterlimit:10;stroke-dasharray:none;stroke-opacity:1"
             id="path3957" /></g><g
           id="g3959"
           transform="translate(263.9717,216.5957)"><path
             d="m 0,0 v -29.07 l -90.012,-17.504 c -33.988,-10.007 -57.325,-27.763 -57.325,-63.194 v -15.407"
             style="fill:none;stroke:#000000;stroke-width:15;stroke-linecap:round;stroke-linejoin:round;stroke-miterlimit:10;stroke-dasharray:none;stroke-opacity:1"
             id="path3961" /></g><g
           id="g3963"
           transform="translate(347.2959,187.5254)"><path
             d="m 0,0 v -0.001 c 0,-23.01 -41.662,-41.662 -41.662,-41.662 l 23.301,-13.971 c 5.12,-3.069 11.598,-2.79 16.39,0.77"
             style="fill:none;stroke:#000000;stroke-width:15;stroke-linecap:round;stroke-linejoin:round;stroke-miterlimit:10;stroke-dasharray:none;stroke-opacity:1"
             id="path3965" /></g><g
           id="g3967"
           transform="translate(265.9424,132.6611)"><path
             d="m 0,0 c 4.791,-3.56 11.271,-3.839 16.391,-0.77 l 23.3,13.971 c 0,0 -41.663,18.653 -41.663,41.662 v 10e-4"
             style="fill:none;stroke:#000000;stroke-width:15;stroke-linecap:round;stroke-linejoin:round;stroke-miterlimit:10;stroke-dasharray:none;stroke-opacity:1"
             id="path3969" /></g><g
           id="g3971"
           transform="translate(390.627,45.0205)"><path
             d="m 0,0 h -44.107 c -2.942,0 -5.326,2.385 -5.326,5.326 v 15.028 c 0,2.941 2.384,5.325 5.326,5.325 H 0 c 2.941,0 5.325,-2.384 5.325,-5.325 V 5.326 C 5.325,2.385 2.941,0 0,0 Z"
             style="fill:none;stroke:#000000;stroke-width:15;stroke-linecap:round;stroke-linejoin:round;stroke-miterlimit:10;stroke-dasharray:none;stroke-opacity:1"
             id="path3973" /></g></g></g></g></svg>
