<svg height="511pt" viewBox="0 -12 511.99988 511" width="511pt" xmlns="http://www.w3.org/2000/svg"><path d="m504.570312 413.375h-43.964843v-45.574219c0-9.902343-14.980469-9.914062-14.980469 0v45.574219h-7.710938c-.769531-10.269531-4.042968-19.855469-9.207031-28.144531.074219-288.972657-.160156-276.59375.164063-276.59375 17.304687.078125 16.753906-.15625 16.753906.164062v229.042969c0 9.902344 14.980469 9.917969 14.980469 0v-229.042969c0-8.351562-6.792969-15.140625-15.140625-15.140625h-16.59375c-8.351563 0-15.140625 6.792969-15.140625 15.140625v113.996094l-32.507813-120.558594c-12.3125-45.660156-50.5625-79.152343-97.449218-85.324219-.277344-.039062-.554688-.070312-.828126-.101562l-144.960937-15.769531c-41.6875-5.1875-78.503906 27.386719-78.503906 69.339843v88.472657c0 9.902343 14.980469 9.914062 14.980469 0v-88.472657c0-32.746093 28.714843-58.613281 61.71875-54.46875.148437.019532 58.640624 6.378907 145.148437 15.789063.164063.019531.328125.039063.488281.0625 40.871094 5.378906 74.214844 34.574219 84.945313 74.375 48.296875 180.128906 46.96875 171.664063 46.96875 177.113281v85.4375c-4.417969-3.398437-9.296875-6.222656-14.535157-8.351562-.089843-81.503906.21875-77.265625-.257812-79.035156l-46.210938-171.382813c-9.199218-34.113281-37.777343-59.136719-72.804687-63.746094-.058594-.007812-.113281-.015625-.167969-.023437l-145.222656-15.796875c-24.113281-3.117188-45.539062 15.671875-45.539062 40.027343v189.191407h-14.53125v-70.761719c0-9.902344-14.980469-9.917969-14.980469 0v70.761719h-7.75c-26.953125 0-48.882813 21.929687-48.882813 48.882812v83.519531c-1.855468 6.574219-2.847656 13.503907-2.847656 20.664063 0 41.996094 34.167969 76.164063 76.164062 76.164063 39.46875 0 72.023438-30.179688 75.800782-68.675782h161.527344c1.082031 33.417969 28.605468 60.273438 62.28125 60.273438 30.863281 0 56.5625-22.554688 61.46875-52.046875h67.324218c9.902344 0 9.917969-14.980469.003906-14.980469zm-400.597656-342.992188c0-7.308593 3.148438-14.265624 8.644532-19.082031 14.832031-13.011719 24.734374-3.070312 165.433593 9.734375 28.972657 3.847656 52.601563 24.558594 60.214844 52.785156l45.953125 170.425782v12.113281l-35.914062-39.4375 8.242187-4.757813c8.574219-4.949218 1.09375-17.929687-7.488281-12.972656l-53.285156 30.761719c-8.578126 4.953125-1.09375 17.933594 7.492187 12.972656l7.847656-4.53125 23.613281 70.042969h-59.867187v-42.125c0-13.730469-11.167969-24.902344-24.898437-24.902344h-66.9375v-80.558594c0-17.457031-14.207032-31.660156-31.664063-31.660156-17.460937 0-31.664063 14.203125-31.664063 31.660156v58.722657h-15.722656zm280.242188 248.226563v29.828125h-33.683594l-26.183594-77.679688 10.679688-6.167968zm-134.253906-22.21875c5.472656 0 9.921874 4.453125 9.921874 9.921875v42.125h-49.824218c-11.410156 0-22.070313-5.621094-28.511719-15.039062l-25.316406-37.007813zm-103.976563-14.980469-11.308594-16.527344v-64.03125c0-9.199218 7.484375-16.683593 16.683594-16.683593s16.683594 7.484375 16.683594 16.683593v80.558594zm-69.820313 192.414063c-33.738281 0-61.1875-27.445313-61.1875-61.183594s27.449219-61.1875 61.1875-61.1875c33.738282 0 61.1875 27.449219 61.1875 61.1875s-27.449218 61.183594-61.1875 61.183594zm75.800782-68.671875c-3.777344-38.496094-36.332032-68.675782-75.800782-68.675782-23.390624 0-44.355468 10.601563-58.339843 27.25v-55.269531c0-18.691406 15.210937-33.902343 33.90625-33.902343h71.414062l46.039063 67.300781c9.234375 13.5 24.515625 21.5625 40.875 21.5625h135.828125c-15.671875 8.601562-27.265625 23.746093-31.078125 41.734375zm223.808594 60.273437c-26.101563 0-47.335938-21.238281-47.335938-47.339843 0-26.101563 21.234375-47.339844 47.335938-47.339844 26.101562 0 47.339843 21.238281 47.339843 47.339844 0 26.101562-21.234375 47.339843-47.339843 47.339843zm0 0"/><path d="m76.164062 379.441406c-18.304687 0-33.199218 14.894532-33.199218 33.199219s14.894531 33.199219 33.199218 33.199219c18.304688 0 33.199219-14.894532 33.199219-33.199219s-14.894531-33.199219-33.199219-33.199219zm0 51.417969c-10.046874 0-18.21875-8.171875-18.21875-18.21875s8.171876-18.222656 18.21875-18.222656c10.046876 0 18.21875 8.175781 18.21875 18.222656s-8.171874 18.21875-18.21875 18.21875zm0 0"/><path d="m375.773438 389.328125c-15.859376 0-28.757813 12.898437-28.757813 28.757813 0 15.859374 12.898437 28.761718 28.757813 28.761718 15.859374 0 28.761718-12.902344 28.761718-28.761718 0-15.859376-12.902344-28.757813-28.761718-28.757813zm0 42.539063c-7.597657 0-13.78125-6.183594-13.78125-13.78125 0-7.597657 6.183593-13.78125 13.78125-13.78125 7.597656 0 13.78125 6.183593 13.78125 13.78125 0 7.597656-6.183594 13.78125-13.78125 13.78125zm0 0"/></svg>