<svg height="512pt" viewBox="0 -18 512 512" width="512pt" xmlns="http://www.w3.org/2000/svg"><path d="m461.859375 0h-21.082031c-8.363282 0-15.167969 6.804688-15.167969 15.167969v292.9375c0 8.363281 6.804687 15.167969 15.167969 15.167969h28.027344c15.535156 0 28.171874 12.636718 28.171874 28.171874 0 15.535157-12.636718 28.171876-28.171874 28.171876h-425.609376c-15.535156 0-28.171874-12.636719-28.171874-28.171876 0-15.535156 12.636718-28.171874 28.171874-28.171874h28.027344c8.363282 0 15.167969-6.804688 15.167969-15.167969v-292.9375c0-8.363281-6.804687-15.167969-15.167969-15.167969h-21.078125c-27.652343 0-50.144531 22.492188-50.144531 50.144531v301.304688c0 23.816406 19.378906 43.195312 43.195312 43.195312h425.609376c23.816406 0 43.195312-19.378906 43.195312-43.195312v-301.304688c0-27.652343-22.492188-50.144531-50.140625-50.144531zm-446.835937 50.144531c0-19.367187 15.753906-35.121093 35.121093-35.121093h21.078125c.082032 0 .144532.066406.144532.144531v292.941406c0 .078125-.0625.144531-.144532.144531h-28.027344c-10.753906 0-20.601562 3.949219-28.171874 10.476563zm453.78125 258.109375h-28.027344c-.082032 0-.144532-.066406-.144532-.148437v-292.9375c0-.082031.0625-.144531.144532-.144531h21.082031c19.363281 0 35.117187 15.753906 35.117187 35.117187v268.585937c-7.570312-6.523437-17.417968-10.472656-28.171874-10.472656zm0 0"/><path d="m108.925781 50.433594h294.148438c4.148437 0 7.511719-3.363282 7.511719-7.511719s-3.363282-7.511719-7.511719-7.511719h-294.148438c-4.148437 0-7.511719 3.363282-7.511719 7.511719s3.363282 7.511719 7.511719 7.511719zm0 0"/><path d="m364.40625 237.167969c8.117188 0 14.71875-6.605469 14.71875-14.71875v-22.878907c0-8.117187-6.601562-14.71875-14.71875-14.71875h-12.640625c-2.191406-8.039062-5.40625-15.792968-9.558594-23.050781l8.945313-8.949219c5.738281-5.738281 5.738281-15.078124 0-20.816406l-16.175782-16.175781c-5.753906-5.753906-15.066406-5.757813-20.820312 0l-8.945312 8.945313c-7.242188-4.144532-14.980469-7.355469-23.050782-9.566407v-12.632812c0-8.117188-6.605468-14.71875-14.71875-14.71875h-22.878906c-8.117188 0-14.71875 6.601562-14.71875 14.71875v12.640625c-8.039062 2.191406-15.792969 5.40625-23.050781 9.558594l-8.949219-8.945313c-5.75-5.753906-15.0625-5.753906-20.816406 0l-16.179688 16.175781c-5.738281 5.738282-5.738281 15.078125.003906 20.816406l8.945313 8.949219c-4.144531 7.242188-7.359375 14.984375-9.566406 23.050781h-12.632813c-8.117187 0-14.722656 6.601563-14.722656 14.71875v22.878907c0 8.117187 6.605469 14.71875 14.722656 14.71875h12.640625c2.191407 8.039062 5.40625 15.792969 9.558594 23.050781l-8.949219 8.945312c-5.738281 5.742188-5.738281 15.078126 0 20.820313l16.179688 16.175781c5.75 5.753906 15.0625 5.753906 20.820312 0l8.945313-8.945312c7.238281 4.140625 14.980469 7.351562 23.050781 9.566406v12.632812c0 8.117188 6.601562 14.71875 14.71875 14.71875h22.878906c8.117188 0 14.71875-6.601562 14.71875-14.71875v-12.640624c8.039063-2.195313 15.792969-5.410157 23.050782-9.558594l8.945312 8.945312c5.753906 5.75 15.066406 5.753906 20.820312 0l16.175782-16.179687c5.738281-5.738281 5.738281-15.074219 0-20.816407l-8.945313-8.945312c4.144531-7.246094 7.355469-14.984375 9.566407-23.050781zm-27.136719-3.953125c-1.863281 6.847656-4.609375 13.449218-8.152343 19.628906-3.335938 5.8125-2.386719 13.144531 2.304687 17.839844l8.894531 8.890625-15.75 15.75-8.894531-8.890625c-4.691406-4.695313-12.027344-5.640625-17.835937-2.308594-6.175782 3.542969-12.78125 6.289062-19.628907 8.15625-6.519531 1.777344-11.070312 7.691406-11.070312 14.382812v12.449219h-22.273438v-12.449219c0-6.691406-4.554687-12.605468-11.070312-14.382812-6.847657-1.867188-13.453125-4.613281-19.628907-8.15625-5.808593-3.335938-13.144531-2.386719-17.835937 2.308594l-8.894531 8.890625-15.75-15.75 8.894531-8.894531c4.691406-4.691407 5.640625-12.023438 2.308594-17.832032-3.546875-6.179687-6.292969-12.785156-8.15625-19.628906-1.777344-6.519531-7.691407-11.070312-14.382813-11.070312h-12.449218v-22.277344h12.449218c6.691406 0 12.605469-4.550782 14.382813-11.070313 1.863281-6.84375 4.609375-13.449219 8.152343-19.628906 3.335938-5.808594 2.386719-13.140625-2.304687-17.835937l-8.894531-8.890626 15.75-15.75 8.894531 8.890626c4.691406 4.691406 12.023437 5.640624 17.832031 2.308593 6.179688-3.546875 12.785156-6.289062 19.632813-8.15625 6.519531-1.777343 11.070312-7.691406 11.070312-14.382812v-12.449219h22.273438v12.449219c0 6.691406 4.554687 12.605469 11.070312 14.382812 6.847657 1.867188 13.453125 4.613281 19.628907 8.15625 5.8125 3.332031 13.144531 2.382813 17.835937-2.308593l8.894531-8.890626 15.75 15.75-8.894531 8.890626c-4.691406 4.691406-5.640625 12.027343-2.308594 17.835937 3.546875 6.179687 6.292969 12.785156 8.15625 19.628906 1.777344 6.519531 7.691407 11.070313 14.382813 11.070313h12.449218v22.273437h-12.449218c-6.6875 0-12.605469 4.554688-14.382813 11.070313zm0 0"/><path d="m256 159.859375c-28.203125 0-51.148438 22.945313-51.148438 51.148437 0 28.207032 22.945313 51.152344 51.148438 51.152344s51.148438-22.945312 51.148438-51.152344c0-28.203124-22.945313-51.148437-51.148438-51.148437zm0 87.277344c-19.921875 0-36.128906-16.207031-36.128906-36.128907 0-19.917968 16.207031-36.125 36.128906-36.125s36.128906 16.207032 36.128906 36.125c0 19.921876-16.207031 36.128907-36.128906 36.128907zm0 0"/><path d="m502.980469 435.617188-61.527344-14.703126c-6.445313-1.542968-13.078125-2.324218-19.710937-2.324218h-47.480469c-4.152344 0-7.511719 3.363281-7.511719 7.511718 0 4.148438 3.359375 7.511719 7.511719 7.511719h41.792969c-1.1875 2.738281-1.820313 5.726563-1.820313 8.8125v9.238281c0 3.089844.632813 6.074219 1.820313 8.816407h-307.945313v-26.867188h236.105469c4.148437 0 7.511718-3.363281 7.511718-7.511719 0-4.148437-3.363281-7.511718-7.511718-7.511718h-315.757813c-15.691406 0-28.457031 12.765625-28.457031 28.457031s12.765625 28.457031 28.457031 28.457031h393.285157c6.628906 0 13.261718-.78125 19.707031-2.324218l61.527343-14.703126c5.3125-1.269531 9.019532-5.96875 9.019532-11.429687.003906-5.460937-3.707032-10.160156-9.015625-11.429687zm-409.894531 24.863281h-14.085938v-26.867188h14.085938zm-78.0625-13.433594c0-7.40625 6.027343-13.433594 13.433593-13.433594h35.519531v26.867188h-35.519531c-7.40625 0-13.433593-6.027344-13.433593-13.433594zm422.9375 11.523437c-.066407.015626-.132813.027344-.195313.042969-2.765625.640625-4.808594-.550781-5.785156-1.324219-1.730469-1.367187-2.726563-3.417968-2.726563-5.621093v-9.238281c0-2.203126.996094-4.253907 2.726563-5.625.976562-.773438 3.019531-1.960938 5.804687-1.320313.058594.015625.117188.027344.175782.039063l48.214843 11.523437zm0 0"/></svg>