<svg xmlns="http://www.w3.org/2000/svg" version="1.1" xmlns:xlink="http://www.w3.org/1999/xlink" width="512" height="512" x="0" y="0" viewBox="0 0 511.999 511" style="enable-background:new 0 0 512 512" xml:space="preserve" class=""><g><path d="M235.742 297.11a7.499 7.499 0 0 0-7.082-7.083c-2.734-.148-67.347-3.156-107.59 37.086-19.058 19.055-24.379 53.598-8.652 75.633l-7.031 7.027c-7.008 7.012 3.586 17.63 10.61 10.606l7.026-7.027c21.938 15.656 56.493 10.484 75.633-8.653 40.242-40.242 37.235-104.86 37.086-107.59zm-72.777 19.933 4.87 30.285-17.753 17.75-6.055-37.637c6.051-4.195 12.461-7.617 18.938-10.398zm50.96 31.406-22.394-3.601 28.547-28.547c-.84 8.918-2.586 20.265-6.152 32.148zm-33.003-14.21-3.602-22.395c11.883-3.567 23.23-5.313 32.149-6.153zm-2.48 23.695 30.285 4.87c-2.782 6.477-6.204 12.887-10.399 18.938l-37.637-6.055zm-47.786-19.153 6.336 39.387-13.734 13.734c-9.45-15.968-4.656-40.043 7.398-53.12zm3.211 63.727 13.735-13.73 39.386 6.335c-13.082 12.055-37.156 16.848-53.12 7.395zm0 0" fill="#ea5501" opacity="1" data-original="#000000" class=""></path><path d="M286.5 356.258c0-65.051-52.27-117.973-116.52-117.973S53.457 291.207 53.457 356.258c0 65.047 52.27 117.969 116.52 117.969S286.5 421.305 286.5 356.257zm-218.043 0c0-56.778 45.543-102.973 101.52-102.973 55.98 0 101.523 46.192 101.523 102.973 0 56.777-45.543 102.969-101.52 102.969-55.98 0-101.523-46.192-101.523-102.97zm0 0" fill="#ea5501" opacity="1" data-original="#000000" class=""></path><path d="M498.266 206.61h-20.524l-12.004-98.06c-1.207-9.85-16.093-8.015-14.89 1.825l11.78 96.234h-73.523l18.887-154.28h35.75l3.457 28.253c1.207 9.852 16.098 8.027 14.89-1.824l-3.253-26.59c6.887-1.031 12.184-6.984 12.184-14.156v-23.2C471.02 6.923 464.602.5 456.707.5h-61.68c-7.89 0-14.312 6.422-14.312 14.313v23.203c0 7.168 5.297 13.125 12.183 14.156l-18.906 154.437h-4.414L350.672 52.168c6.883-1.035 12.176-6.988 12.176-14.152V14.813C362.848 6.921 356.426.5 348.535.5h-61.68c-7.894 0-14.316 6.422-14.316 14.313v23.203c0 7.164 5.297 13.117 12.18 14.152l-18.582 151.773-111.668-78.218c-8.707-6.106-20.707.136-20.707 10.777v68.414L20.707 125.723C11.997 119.62 0 125.859 0 136.5v280.586c0 9.914 15 9.93 15 0V140.039c117.71 81.445 112.781 81.57 120.605 81.57 7.254 0 13.157-5.902 13.157-13.16v-68.41c119.96 83.434 114.336 81.57 118.816 81.57H497v262.575a3.32 3.32 0 0 1-3.316 3.316h-40.172V332.664c0-6.824-5.551-12.375-12.375-12.375H359.8c-6.824 0-12.375 5.55-12.375 12.375V487.5H18.316A3.32 3.32 0 0 1 15 484.184v-37.098c0-9.914-15-9.93-15 0v37.098C0 494.28 8.219 502.5 18.316 502.5h475.368c10.097 0 18.316-8.219 18.316-18.316v-263.84c0-7.574-6.16-13.735-13.734-13.735zM395.715 15.5h60.305v21.828h-60.305zm-60.137 36.828 18.89 154.281h-73.546l18.89-154.28zM287.543 15.5h60.305v21.828h-60.305zm74.883 319.79h76.086V487.5h-76.086zm0 0" fill="#ea5501" opacity="1" data-original="#000000" class=""></path></g></svg>