<svg xmlns="http://www.w3.org/2000/svg" version="1.1" xmlns:xlink="http://www.w3.org/1999/xlink" width="512" height="512" x="0" y="0" viewBox="0 0 682.667 682.667" style="enable-background:new 0 0 512 512" xml:space="preserve" class=""><g><defs><clipPath id="a" clipPathUnits="userSpaceOnUse"><path d="M0 512h512V0H0Z" fill="#ea5501" opacity="1" data-original="#000000"></path></clipPath></defs><path d="M0 0v-44.086" style="stroke-width:15;stroke-linecap:round;stroke-linejoin:round;stroke-miterlimit:10;stroke-dasharray:none;stroke-opacity:1" transform="matrix(1.33333 0 0 -1.33333 407.512 94.563)" fill="none" stroke="#ea5501" stroke-width="15" stroke-linecap="round" stroke-linejoin="round" stroke-miterlimit="10" stroke-dasharray="none" stroke-opacity="" data-original="#000000" opacity="1" class=""></path><path d="M0 0v-20.547" style="stroke-width:15;stroke-linecap:round;stroke-linejoin:round;stroke-miterlimit:10;stroke-dasharray:none;stroke-opacity:1" transform="matrix(1.33333 0 0 -1.33333 455.76 102.607)" fill="none" stroke="#ea5501" stroke-width="15" stroke-linecap="round" stroke-linejoin="round" stroke-miterlimit="10" stroke-dasharray="none" stroke-opacity="" data-original="#000000" opacity="1" class=""></path><path d="M0 0v20.547" style="stroke-width:15;stroke-linecap:round;stroke-linejoin:round;stroke-miterlimit:10;stroke-dasharray:none;stroke-opacity:1" transform="matrix(1.33333 0 0 -1.33333 359.264 130.003)" fill="none" stroke="#ea5501" stroke-width="15" stroke-linecap="round" stroke-linejoin="round" stroke-miterlimit="10" stroke-dasharray="none" stroke-opacity="" data-original="#000000" opacity="1" class=""></path><g clip-path="url(#a)" transform="matrix(1.33333 0 0 -1.33333 0 682.667)"><path d="M0 0h-439.502c-7.826 0-14.17-6.344-14.17-14.169 0-7.826 6.344-14.17 14.17-14.17H0c7.825 0 14.169 6.344 14.169 14.17C14.169-6.344 7.825 0 0 0Z" style="stroke-width:15;stroke-linecap:round;stroke-linejoin:round;stroke-miterlimit:10;stroke-dasharray:none;stroke-opacity:1" transform="translate(471.04 504.52)" fill="none" stroke="#ea5501" stroke-width="15" stroke-linecap="round" stroke-linejoin="round" stroke-miterlimit="10" stroke-dasharray="none" stroke-opacity="" data-original="#000000" opacity="1" class=""></path><path d="M0 0h83.133c7.825 0 14.169 6.344 14.169 14.17 0 7.825-6.344 14.169-14.169 14.169H17.357" style="stroke-width:15;stroke-linecap:round;stroke-linejoin:round;stroke-miterlimit:10;stroke-dasharray:none;stroke-opacity:1" transform="translate(387.906 211.783)" fill="none" stroke="#ea5501" stroke-width="15" stroke-linecap="round" stroke-linejoin="round" stroke-miterlimit="10" stroke-dasharray="none" stroke-opacity="" data-original="#000000" opacity="1" class=""></path><path d="M0 0v-236.06" style="stroke-width:15;stroke-linecap:round;stroke-linejoin:round;stroke-miterlimit:10;stroke-dasharray:none;stroke-opacity:1" transform="translate(38.821 476.182)" fill="none" stroke="#ea5501" stroke-width="15" stroke-linecap="round" stroke-linejoin="round" stroke-miterlimit="10" stroke-dasharray="none" stroke-opacity="" data-original="#000000" opacity="1" class=""></path><path d="M0 0v236.06" style="stroke-width:15;stroke-linecap:round;stroke-linejoin:round;stroke-miterlimit:10;stroke-dasharray:none;stroke-opacity:1" transform="translate(461.041 240.122)" fill="none" stroke="#ea5501" stroke-width="15" stroke-linecap="round" stroke-linejoin="round" stroke-miterlimit="10" stroke-dasharray="none" stroke-opacity="" data-original="#000000" opacity="1" class=""></path><path d="M0 0h-174.305c-7.825 0-14.169-6.344-14.169-14.169 0-7.826 6.344-14.17 14.169-14.17H18.698" style="stroke-width:15;stroke-linecap:round;stroke-linejoin:round;stroke-miterlimit:10;stroke-dasharray:none;stroke-opacity:1" transform="translate(205.84 240.122)" fill="none" stroke="#ea5501" stroke-width="15" stroke-linecap="round" stroke-linejoin="round" stroke-miterlimit="10" stroke-dasharray="none" stroke-opacity="" data-original="#000000" opacity="1" class=""></path><path d="M0 0h-47.087a4.443 4.443 0 0 0-4.444 4.443v29.088a4.444 4.444 0 0 0 4.444 4.444H0a4.444 4.444 0 0 0 4.444-4.444V4.443A4.444 4.444 0 0 0 0 0Z" style="stroke-width:15;stroke-linecap:round;stroke-linejoin:round;stroke-miterlimit:10;stroke-dasharray:none;stroke-opacity:1" transform="translate(127.01 408.019)" fill="none" stroke="#ea5501" stroke-width="15" stroke-linecap="round" stroke-linejoin="round" stroke-miterlimit="10" stroke-dasharray="none" stroke-opacity="" data-original="#000000" opacity="1" class=""></path><path d="M0 0h-47.087a4.444 4.444 0 0 0-4.444 4.444v29.087a4.445 4.445 0 0 0 4.444 4.445H0a4.445 4.445 0 0 0 4.444-4.445V4.444A4.444 4.444 0 0 0 0 0Z" style="stroke-width:15;stroke-linecap:round;stroke-linejoin:round;stroke-miterlimit:10;stroke-dasharray:none;stroke-opacity:1" transform="translate(127.01 338.509)" fill="none" stroke="#ea5501" stroke-width="15" stroke-linecap="round" stroke-linejoin="round" stroke-miterlimit="10" stroke-dasharray="none" stroke-opacity="" data-original="#000000" opacity="1" class=""></path><path d="M0 0h-47.087a4.443 4.443 0 0 0-4.444 4.443v29.088a4.444 4.444 0 0 0 4.444 4.444H0a4.444 4.444 0 0 0 4.444-4.444V4.443A4.444 4.444 0 0 0 0 0Z" style="stroke-width:15;stroke-linecap:round;stroke-linejoin:round;stroke-miterlimit:10;stroke-dasharray:none;stroke-opacity:1" transform="translate(127.01 269)" fill="none" stroke="#ea5501" stroke-width="15" stroke-linecap="round" stroke-linejoin="round" stroke-miterlimit="10" stroke-dasharray="none" stroke-opacity="" data-original="#000000" opacity="1" class=""></path><path d="M0 0h-192.551c-7.142 0-12.932 5.789-12.932 12.932 0 7.142 5.79 12.932 12.932 12.932H0c7.143 0 12.933-5.79 12.933-12.932C12.933 5.789 7.143 0 0 0Z" style="stroke-width:15;stroke-linecap:round;stroke-linejoin:round;stroke-miterlimit:10;stroke-dasharray:none;stroke-opacity:1" transform="translate(401.91 313.517)" fill="none" stroke="#ea5501" stroke-width="15" stroke-linecap="round" stroke-linejoin="round" stroke-miterlimit="10" stroke-dasharray="none" stroke-opacity="" data-original="#000000" opacity="1" class=""></path><path d="M0 0v12.921c0 49.346-40.002 89.348-89.347 89.348h-8.121c-49.345 0-89.347-40.002-89.347-89.348V0" style="stroke-width:15;stroke-linecap:round;stroke-linejoin:round;stroke-miterlimit:10;stroke-dasharray:none;stroke-opacity:1" transform="translate(399.041 339.38)" fill="none" stroke="#ea5501" stroke-width="15" stroke-linecap="round" stroke-linejoin="round" stroke-miterlimit="10" stroke-dasharray="none" stroke-opacity="" data-original="#000000" opacity="1" class=""></path><path d="M0 0a13.97 13.97 0 0 1-1.204-5.674v-15.557c0-7.753 6.286-14.039 14.039-14.039h5.309c.438-20.374 9-39.985 24.467-53.303 12.452-10.722 29.957-20.081 53.079-20.339 23.123.258 40.627 9.617 53.08 20.339 15.467 13.318 24.029 32.929 24.466 53.303h5.31c7.753 0 14.039 6.286 14.039 14.039v15.557c0 2.021-.436 3.938-1.204 5.674" style="stroke-width:15;stroke-linecap:round;stroke-linejoin:round;stroke-miterlimit:10;stroke-dasharray:none;stroke-opacity:1" transform="translate(209.943 313.517)" fill="none" stroke="#ea5501" stroke-width="15" stroke-linecap="round" stroke-linejoin="round" stroke-miterlimit="10" stroke-dasharray="none" stroke-opacity="" data-original="#000000" opacity="1" class=""></path><path d="M0 0v45.285a61.742 61.742 0 0 1-11.249 35.539c-21.018 29.873-64.143 92.66-64.143 92.662" style="stroke-width:15;stroke-linecap:round;stroke-linejoin:round;stroke-miterlimit:10;stroke-dasharray:none;stroke-opacity:1" transform="translate(305.634 7.48)" fill="none" stroke="#ea5501" stroke-width="15" stroke-linecap="round" stroke-linejoin="round" stroke-miterlimit="10" stroke-dasharray="none" stroke-opacity="" data-original="#000000" opacity="1" class=""></path><path d="m0 0 5.02-16.787a311.402 311.402 0 0 0 12.35-86.828v-54.681" style="stroke-width:15;stroke-linecap:round;stroke-linejoin:round;stroke-miterlimit:10;stroke-dasharray:none;stroke-opacity:1" transform="translate(161.522 165.775)" fill="none" stroke="#ea5501" stroke-width="15" stroke-linecap="round" stroke-linejoin="round" stroke-miterlimit="10" stroke-dasharray="none" stroke-opacity="" data-original="#000000" opacity="1" class=""></path><path d="M0 0v45.285a61.742 61.742 0 0 0 11.249 35.539c21.018 29.873 64.143 92.66 64.144 92.662" style="stroke-width:15;stroke-linecap:round;stroke-linejoin:round;stroke-miterlimit:10;stroke-dasharray:none;stroke-opacity:1" transform="translate(305.634 7.48)" fill="none" stroke="#ea5501" stroke-width="15" stroke-linecap="round" stroke-linejoin="round" stroke-miterlimit="10" stroke-dasharray="none" stroke-opacity="" data-original="#000000" opacity="1" class=""></path><path d="m0 0-5.02-16.787a311.402 311.402 0 0 1-12.35-86.828v-54.681" style="stroke-width:15;stroke-linecap:round;stroke-linejoin:round;stroke-miterlimit:10;stroke-dasharray:none;stroke-opacity:1" transform="translate(449.746 165.775)" fill="none" stroke="#ea5501" stroke-width="15" stroke-linecap="round" stroke-linejoin="round" stroke-miterlimit="10" stroke-dasharray="none" stroke-opacity="" data-original="#000000" opacity="1" class=""></path><path d="M0 0v-31.043c0-12.736 10.325-23.061 23.062-23.061h331.875c12.737 0 23.062 10.325 23.062 23.061v76.288c0 35.431-23.336 53.187-57.326 63.193l-90.011 17.504v29.071" style="stroke-width:15;stroke-linecap:round;stroke-linejoin:round;stroke-miterlimit:10;stroke-dasharray:none;stroke-opacity:1" transform="translate(116.634 61.583)" fill="none" stroke="#ea5501" stroke-width="15" stroke-linecap="round" stroke-linejoin="round" stroke-miterlimit="10" stroke-dasharray="none" stroke-opacity="" data-original="#000000" opacity="1" class=""></path><path d="M0 0v-29.07l-90.012-17.504c-33.988-10.007-57.325-27.763-57.325-63.194v-15.407" style="stroke-width:15;stroke-linecap:round;stroke-linejoin:round;stroke-miterlimit:10;stroke-dasharray:none;stroke-opacity:1" transform="translate(263.972 216.596)" fill="none" stroke="#ea5501" stroke-width="15" stroke-linecap="round" stroke-linejoin="round" stroke-miterlimit="10" stroke-dasharray="none" stroke-opacity="" data-original="#000000" opacity="1" class=""></path><path d="M0 0v-.001c0-23.01-41.662-41.662-41.662-41.662l23.301-13.971c5.12-3.069 11.598-2.79 16.39.77" style="stroke-width:15;stroke-linecap:round;stroke-linejoin:round;stroke-miterlimit:10;stroke-dasharray:none;stroke-opacity:1" transform="translate(347.296 187.525)" fill="none" stroke="#ea5501" stroke-width="15" stroke-linecap="round" stroke-linejoin="round" stroke-miterlimit="10" stroke-dasharray="none" stroke-opacity="" data-original="#000000" opacity="1" class=""></path><path d="M0 0c4.791-3.56 11.271-3.839 16.391-.77l23.3 13.971S-1.972 31.854-1.972 54.863v.001" style="stroke-width:15;stroke-linecap:round;stroke-linejoin:round;stroke-miterlimit:10;stroke-dasharray:none;stroke-opacity:1" transform="translate(265.942 132.661)" fill="none" stroke="#ea5501" stroke-width="15" stroke-linecap="round" stroke-linejoin="round" stroke-miterlimit="10" stroke-dasharray="none" stroke-opacity="" data-original="#000000" opacity="1" class=""></path><path d="M0 0h-44.107a5.326 5.326 0 0 0-5.326 5.326v15.028a5.325 5.325 0 0 0 5.326 5.325H0a5.325 5.325 0 0 0 5.325-5.325V5.326A5.326 5.326 0 0 0 0 0Z" style="stroke-width:15;stroke-linecap:round;stroke-linejoin:round;stroke-miterlimit:10;stroke-dasharray:none;stroke-opacity:1" transform="translate(390.627 45.02)" fill="none" stroke="#ea5501" stroke-width="15" stroke-linecap="round" stroke-linejoin="round" stroke-miterlimit="10" stroke-dasharray="none" stroke-opacity="" data-original="#000000" opacity="1" class=""></path></g></g></svg>