<svg xmlns="http://www.w3.org/2000/svg" width="395.21" height="135.98" viewBox="0 0 395.21 135.98"><title>logo-dark</title><path d="M.76,122.09l39.82,2.82h0l66.2-1.79,0-2.74-62.41.79L43.79,69l62.52,9.36,0-3.34-28-12.12-17.51,3L58.09,26.47a18,18,0,0,0-12.31,0l-.86,39.1-5-.76h0l-3.88.78-3.6-48.12s-6.26-2.86-14.83,0l-1.16,52.1L.24,72.87ZM77.61,70.58,61.55,68.12l16.5-2.48ZM20.06,84l7.31-1.25.22,21.16-7.53-.2Zm-9.83,1.68,6.38-1.09v19l-6.38-.16Z" transform="translate(-0.24)" fill="#0e0c16"/><path d="M65.2,108.4c0,2.85,1.72,5.15,3.78,5.13,1.67,0,3.07-1.56,3.52-3.68l35,.08a.69.69,0,0,0,0-1.37l-35-1.51c-.43-2.23-1.9-3.87-3.64-3.86C66.82,103.21,65.17,105.54,65.2,108.4Zm1.69-.1c0-1.74.93-3.17,2.1-3.18s2.15,1.4,2.17,3.14-.93,3.17-2.11,3.18S66.91,110.05,66.89,108.3Zm41.24-17.62a.8.8,0,0,0-.7-.88L96.08,88.37c-.13-1.86-1.16-3.31-2.41-3.3s-2.39,1.66-2.37,3.67,1.11,3.63,2.44,3.61c1,0,1.78-.88,2.15-2.13l11.36,1.18A.79.79,0,0,0,108.13,90.68Zm-13-1.81c0,1.22-.58,2.22-1.33,2.22s-1.36-1-1.37-2.2.58-2.21,1.33-2.22S95.11,87.65,95.12,88.87ZM50.6,86.08c.25,3.5,2.52,6.19,5.07,6,1.83-.13,3.3-1.71,3.89-3.89l19.5,2.16,6.75,9.27,0,0a1,1,0,0,0,.71.39l20.74,1.19h0a.77.77,0,0,0,.82-.73.79.79,0,0,0-.72-.82L87.15,98.17l-6.21-9.88a1.23,1.23,0,0,0-.87-.57H80L59.72,84.56c-.53-3.08-2.63-5.34-5-5.16C52.21,79.58,50.35,82.57,50.6,86.08Zm2-.13c-.14-2.21,1-4.08,2.49-4.18s2.87,1.61,3,3.82-1,4.09-2.49,4.19S52.73,88.17,52.59,86Z" transform="translate(-0.24)" fill="#ff5400"/><path d="M25,12.83C28.55,6.52,35.9,12.29,36.26,0,33.65,11.77,25.41,5.36,25,12.83Z" transform="translate(-0.24)" fill="#ff5400" fill-rule="evenodd"/><path d="M50.24,23.21c2.84-5.1,8.79-.44,9.07-10.38-2.1,9.52-8.77,4.34-9.07,10.38Z" transform="translate(-0.24)" fill="#ff5400" fill-rule="evenodd"/><path d="M132.3,78.56a5.69,5.69,0,0,1-4-1.58,5.09,5.09,0,0,1,0-7.56,6,6,0,0,1,8.08,0,5.09,5.09,0,0,1,0,7.56A5.71,5.71,0,0,1,132.3,78.56ZM127,121.66V83.48h10.59v38.18Z" transform="translate(-0.24)" fill="#15141c"/><path d="M154.51,99.59v22.07H143.92V83.48H154v6.73h.45a10.67,10.67,0,0,1,4.25-5.28,12.93,12.93,0,0,1,7.23-2,13.44,13.44,0,0,1,6.94,1.74,11.88,11.88,0,0,1,4.6,5,16.76,16.76,0,0,1,1.64,7.67v24.31H168.53V99.24a7.72,7.72,0,0,0-1.79-5.48,6.45,6.45,0,0,0-5-2,7.53,7.53,0,0,0-3.76.92,6.25,6.25,0,0,0-2.54,2.67A9.26,9.26,0,0,0,154.51,99.59Z" transform="translate(-0.24)" fill="#15141c"/><path d="M199.41,122.28a14.26,14.26,0,0,1-7.86-2.25,15.22,15.22,0,0,1-5.57-6.64,25.27,25.27,0,0,1-2-10.77A25,25,0,0,1,186,91.69a15.23,15.23,0,0,1,5.63-6.53A14.42,14.42,0,0,1,199.39,83a11.9,11.9,0,0,1,5.36,1.08,10.72,10.72,0,0,1,3.48,2.69,14,14,0,0,1,2,3.14h.33V70.75h10.56v50.91H210.7v-6.12h-.45a13.93,13.93,0,0,1-2.1,3.15,10.51,10.51,0,0,1-3.5,2.57A12.18,12.18,0,0,1,199.41,122.28Zm3.36-8.43a6.77,6.77,0,0,0,4.34-1.4,8.94,8.94,0,0,0,2.73-3.94,18.89,18.89,0,0,0,0-11.86,8.58,8.58,0,0,0-2.73-3.88,7.6,7.6,0,0,0-8.75,0,8.72,8.72,0,0,0-2.71,3.93,19,19,0,0,0,0,11.7,8.94,8.94,0,0,0,2.71,4A6.8,6.8,0,0,0,202.77,113.85Z" transform="translate(-0.24)" fill="#15141c"/><path d="M252.2,105.4V83.48h10.59v38.18H252.62v-6.94h-.4a11.32,11.32,0,0,1-4.28,5.4,12.67,12.67,0,0,1-7.3,2,12.89,12.89,0,0,1-6.74-1.74,11.82,11.82,0,0,1-4.53-5,17,17,0,0,1-1.66-7.68V83.48H238.3V105.9a7.69,7.69,0,0,0,1.82,5.34,6.17,6.17,0,0,0,4.8,2,7.67,7.67,0,0,0,3.58-.88,6.86,6.86,0,0,0,2.69-2.63A8.08,8.08,0,0,0,252.2,105.4Z" transform="translate(-0.24)" fill="#15141c"/><path d="M268.94,121.66v-6.31L287.63,92.2v-.27h-18V83.48h30.8v6.88l-17.55,22.58v.27H301v8.45Z" transform="translate(-0.24)" fill="#15141c"/><path d="M327.37,83.48v8h-23v-8ZM309.6,74.33h10.59v35.6a4.74,4.74,0,0,0,.44,2.27,2.43,2.43,0,0,0,1.26,1.13,4.93,4.93,0,0,0,1.88.33,8.44,8.44,0,0,0,1.49-.14l1.14-.21,1.67,7.88c-.53.16-1.28.36-2.24.58a18.21,18.21,0,0,1-3.51.41,16,16,0,0,1-6.7-1,9.38,9.38,0,0,1-4.46-3.63,11.06,11.06,0,0,1-1.56-6.21Z" transform="translate(-0.24)" fill="#15141c"/><path d="M332.16,121.66V83.48h10.26v6.66h.4a9.94,9.94,0,0,1,3.5-5.38A9.25,9.25,0,0,1,352,82.93a15.29,15.29,0,0,1,1.72.1,13.78,13.78,0,0,1,1.61.27v9.4a13.91,13.91,0,0,0-2.06-.4,19.59,19.59,0,0,0-2.41-.17,8.41,8.41,0,0,0-4.17,1,7.56,7.56,0,0,0-2.88,2.79,8,8,0,0,0-1.05,4.13v21.6Z" transform="translate(-0.24)" fill="#15141c"/><path d="M366.4,136a22.3,22.3,0,0,1-3.77-.31,14.18,14.18,0,0,1-2.9-.79l2.39-7.9a13,13,0,0,0,3.37.62,4.31,4.31,0,0,0,2.61-.7,5.14,5.14,0,0,0,1.8-2.53l.62-1.62L356.83,83.48H368l7.91,28h.39l8-28h11.22l-14.84,42.31a18.37,18.37,0,0,1-2.9,5.38,12.19,12.19,0,0,1-4.61,3.55A16.23,16.23,0,0,1,366.4,136Z" transform="translate(-0.24)" fill="#15141c"/></svg>