<svg xmlns="http://www.w3.org/2000/svg" version="1.1" xmlns:xlink="http://www.w3.org/1999/xlink" width="512" height="512" x="0" y="0" viewBox="0 0 512 511" style="enable-background:new 0 0 512 512" xml:space="preserve"><g><path d="m410.473 311.559-46.707 6.921c-9.743 1.446-7.692 16.313 2.199 14.833l46.707-6.922c9.828-1.457 7.598-16.301-2.2-14.832zM414.648 339.719l-46.707 6.922c-9.742 1.445-7.691 16.312 2.196 14.832l46.707-6.922c9.824-1.457 7.601-16.297-2.196-14.832zM387.23 169.559c9.825-1.457 7.606-16.297-2.199-14.832l-46.703 6.921c-9.137 1.356-8.129 14.915 1.09 14.915 1.05 0-1.578.289 47.812-7.004zM344.7 204.64l46.706-6.921c9.801-1.453 7.617-16.297-2.199-14.832l-46.707 6.922c-9.742 1.445-7.691 16.312 2.2 14.832zm0 0" fill="#ea5501" opacity="1" data-original="#000000"></path><path d="M502.465 364.848c-5.078-3.766-11.305-5.332-17.547-4.407l-26.926 3.993-36.476-245.059c-1.453-9.805-16.29-7.621-14.832 2.2l13.23 89.265-209.633 31.07-21.277-143.547 72.625-10.761 5.96 40.238c1.274 8.586 9.29 14.527 17.872 13.258l31.102-4.61c8.582-1.273 14.527-9.289 13.257-17.87l-5.965-40.243c68.735-9.672 74.422-13.523 75.54-5.992l2.89 19.523c1.453 9.805 16.29 7.621 14.836-2.199l-2.894-19.523c-1.633-11.012-11.864-18.602-22.88-16.97L314.27 64.638c-.012 0-.02.004-.032.004-.008 0-.015.004-.023.004L186.805 83.53l-5.43-36.62c-4-26.99-29.219-45.688-56.2-41.692l-.359.05c-2.562-3.382-6.847-5.304-11.332-4.64L10.242 15.934C3.684 16.906-.84 23 .132 29.562l5.364 36.192c.965 6.523 7.027 11.086 13.625 10.11l103.246-15.302c4.863-.718 8.547-4.238 9.785-8.578 1.649 0 2.336 1.078 2.453 1.856l43.262 291.898c1.461 9.84 16.29 7.602 14.836-2.199L149.438 51.645a17.065 17.065 0 0 0-6.766-11.286c-3.395-2.515-7.496-3.68-11.664-3.328l-2.54-17.125c18.395-2.129 35.34 10.758 38.075 29.203l43.777 295.368c1.457 9.808 16.29 7.62 14.836-2.2l-12.68-85.535 72.235-10.707 4.738 31.973c1.274 8.586 9.293 14.531 17.871 13.258l31.098-4.61c8.582-1.27 14.531-9.289 13.258-17.87l-4.738-31.974 75.324-11.164 20.898 140.985-155.613 23.062c-9.828 1.457-7.602 16.301 2.195 14.832l197.375-29.254c11.16-1.664 13.906 15.422 2.535 17.106L295.06 421.223c-9.801 1.453-7.621 16.3 2.195 14.832l194.598-28.84c20.902-3.102 27.382-29.93 10.613-42.367zm-187.48-244.032a.737.737 0 0 1-.622.84l-31.097 4.61a.733.733 0 0 1-.84-.625l-5.965-40.239 32.562-4.824zM19.89 60.594l-4.489-30.266 97.317-14.426 4.484 30.266zm316.332 211.23c-31.496 4.336-31.73 5.395-31.938 3.985l-4.742-31.973 32.562-4.824c4.438 32.152 5.532 32.601 4.118 32.812zm0 0" fill="#ea5501" opacity="1" data-original="#000000"></path><path d="M149.996 392.758c-36.223 48.828 4.695 117.805 65.211 108.832 37.453-5.55 63.406-40.54 57.856-77.988-8.915-60.137-86.723-79.836-123.067-30.844zm63.012 94c-46.988 6.957-79.383-46.766-50.969-85.063 28.426-38.324 89.203-23.02 96.188 24.106 4.34 29.27-15.946 56.617-45.22 60.957zm0 0" fill="#ea5501" opacity="1" data-original="#000000"></path><path d="M223.727 408.613c-22.446-16.652-53.477 2.434-49.446 29.63 2.52 16.984 18.387 28.808 35.434 26.28 27.316-4.046 36.27-39.398 14.012-55.91zm-16.211 41.078c-8.84 1.317-17.09-4.812-18.399-13.648-2.097-14.145 14.047-24.012 25.676-15.387a16.096 16.096 0 0 1 6.371 10.637c1.313 8.836-4.812 17.09-13.648 18.398zm0 0" fill="#ea5501" opacity="1" data-original="#000000"></path></g></svg>