<svg height="512pt" viewBox="0 -7 512.001 512" width="512pt" xmlns="http://www.w3.org/2000/svg"><path d="m69.460938 121.542969c-17.59375 0-31.90625 14.3125-31.90625 31.910156 0 17.59375 14.3125 31.90625 31.90625 31.90625s31.90625-14.3125 31.90625-31.90625c0-17.597656-14.3125-31.910156-31.90625-31.910156zm0 48.539062c-9.171876 0-16.628907-7.460937-16.628907-16.628906 0-9.171875 7.460938-16.632813 16.628907-16.632813 9.171874 0 16.632812 7.460938 16.632812 16.632813 0 9.167969-7.460938 16.628906-16.632812 16.628906zm0 0"/><path d="m309.574219 358.402344c21.191406 0 38.429687-17.234375 38.429687-38.425782 0-21.1875-17.238281-38.425781-38.429687-38.425781-21.1875 0-38.425781 17.238281-38.425781 38.425781 0 21.191407 17.238281 38.425782 38.425781 38.425782zm0-61.574219c12.765625 0 23.152343 10.382813 23.152343 23.148437 0 12.765626-10.386718 23.152344-23.152343 23.152344s-23.148438-10.386718-23.148438-23.152344c0-12.765624 10.382813-23.148437 23.148438-23.148437zm0 0"/><path d="m469.792969 420.023438h-72.277344l-20.085937-59.441407c23.59375-39.367187 8.898437-90.496093-31.933594-111.363281l-177.277344-90.59375 93.417969-66.777344c31.601562 10.59375 30.117187 10.574219 32.363281 10.574219 8.589844 0 10.609375-12.097656 2.457031-14.871094-34.441406-13.875-52.566406-11.90625-60.851562-30.867187-11.238281-25.703125 16.769531-51.585938 41.601562-37.601563l95.914063 54.027344-15.664063 35.183594-31.859375-10.832031c-9.5625-3.257813-14.492187 11.207031-4.917968 14.460937l32.097656 10.914063c.199218 7.027343 4.78125 13.019531 11.226562 15.210937l13.964844 4.75c5.332031 1.808594 10.949219.804687 15.191406-2.339844l19.585938 22.523438c2.757812 3.171875 6.648437 4.84375 10.597656 4.84375 6.34375 0 8.777344-3.527344 21.808594-10.851563 8.636718-5.238281.726562-18.304687-7.921875-13.058594l-13.632813 8.265626-22.035156-25.34375 14.484375-32.535157 34.039063.199219 2.613281 15.726562c1.683593 10.140626 16.714843 7.394532 15.070312-2.503906l-2.78125-16.742187c-1.125-6.769531-6.921875-11.714844-13.78125-11.753907l-29.910156-.171874c.023437-5.828126-3.050781-11.417969-8.457031-14.460938l-12.855469-7.246094c-6.195313-3.484375-14.113281-2.6875-19.496094 2.378906l-95.785156-53.953124c-19.066406-10.742188-43.117187-6.144532-56.898437 10.90625l-155.816407 67.355468c-39.246093-1.414062-71.988281 30.089844-71.988281 69.417969 0 44.730469 42.019531 78.140625 85.839844 67.507813l154.378906 142.867187-18.988281 56.195313h-21.769531c-10.097657 0-10.117188 15.277343 0 15.277343h270.332031c14.847656 0 26.929687 12.082031 26.929687 26.929688v17.320312c0 1.625-1.320312 2.945313-2.941406 2.945313h-359.097656c-1.621094 0-2.941406-1.320313-2.941406-2.945313v-17.320312c0-14.847657 12.082031-26.929688 26.929687-26.929688h10.234375c10.097656 0 10.117188-15.277343 0-15.277343h-10.234375c-23.273437 0-42.207031 18.933593-42.207031 42.207031v17.320312c0 10.046875 8.171875 18.21875 18.21875 18.21875h359.097656c10.046875 0 18.21875-8.171875 18.21875-18.21875v-17.320312c0-23.273438-18.933594-42.207031-42.207031-42.207031zm-77.308594-349.363282 12.859375 7.242188c.585938.328125.820312 1.039062.546875 1.65625l-21.402344 48.074218c-.273437.617188-.960937.917969-1.601562.699219l-13.964844-4.75c-.949219-.351562-.960937-1.320312-.769531-1.753906l22.511718-50.570313v.003907c.195313-.433594.625-1.230469 1.820313-.601563zm-173.996094-33.308594c-3.425781 20.296876 7.320313 39.925782 25.578125 48.277344l-91.167968 65.171875-14.71875-7.523437c-3.539063-24.015625-19.417969-44.074219-40.96875-53.503906zm-203.210937 116.101563c0-29.878906 24.304687-54.1875 54.183594-54.1875 29.878906 0 54.1875 24.308594 54.1875 54.1875s-24.308594 54.183594-54.1875 54.183594c-29.878907 0-54.183594-24.304688-54.183594-54.183594zm123.277344 7.171875 199.988281 102.195312c34.578125 17.671876 45.570312 61.84375 23.355469 93.65625-22.28125 31.910157-67.550782 36.632813-95.96875 10.335938l-164.132813-151.894531c20.054687-10.59375 34.328125-30.710938 36.757813-54.292969zm113.949218 214.574219c1.445313.933593 25.507813 27.757812 65.398438 23.464843 18.492187-1.992187 35.539062-10.390624 48.324218-23.523437l15.164063 44.882813h-144.035156zm0 0"/></svg>