<?xml version="1.0" encoding="UTF-8" standalone="no"?>
<!-- Created with Inkscape (http://www.inkscape.org/) -->

<svg
   version="1.1"
   id="svg2547"
   xml:space="preserve"
   width="682.66669"
   height="682.66669"
   viewBox="0 0 682.66669 682.66669"
   xmlns="http://www.w3.org/2000/svg"
   xmlns:svg="http://www.w3.org/2000/svg"><defs
     id="defs2551"><clipPath
       clipPathUnits="userSpaceOnUse"
       id="clipPath2561"><path
         d="M 0,512 H 512 V 0 H 0 Z"
         id="path2559" /></clipPath></defs><g
     id="g2553"
     transform="matrix(1.3333333,0,0,-1.3333333,0,682.66667)"><g
       id="g2555"><g
         id="g2557"
         clip-path="url(#clipPath2561)"><g
           id="g2563"
           transform="translate(387.083,237.7725)"><path
             d="m 0,0 -13.169,-29.12 c -0.991,-2.194 -0.26,-4.783 1.734,-6.133 l 10.836,-7.335"
             style="fill:none;stroke:#000000;stroke-width:15;stroke-linecap:round;stroke-linejoin:round;stroke-miterlimit:10;stroke-dasharray:none;stroke-opacity:1"
             id="path2565" /></g><g
           id="g2567"
           transform="translate(421.0576,237.7725)"><path
             d="m 0,0 13.169,-29.12 c 0.992,-2.194 0.26,-4.783 -1.733,-6.133 L 0.599,-42.588"
             style="fill:none;stroke:#000000;stroke-width:15;stroke-linecap:round;stroke-linejoin:round;stroke-miterlimit:10;stroke-dasharray:none;stroke-opacity:1"
             id="path2569" /></g><g
           id="g2571"
           transform="translate(64.147,451.0977)"><path
             d="m 0,0 h -23.323 c -18.298,0 -33.131,14.833 -33.131,33.13 0,8.339 6.76,15.098 15.098,15.098 h 466.418 c 8.338,0 15.098,-6.759 15.098,-15.098 C 440.16,14.833 425.327,0 407.029,0 H 30"
             style="fill:none;stroke:#000000;stroke-width:15;stroke-linecap:round;stroke-linejoin:round;stroke-miterlimit:10;stroke-dasharray:none;stroke-opacity:1"
             id="path2573" /></g><g
           id="g2575"
           transform="translate(352.46,451.0977)"><path
             d="m 0,0 v -18.748 c 0,-5.486 4.447,-9.934 9.934,-9.934 H 96.95 c 5.486,0 9.933,4.448 9.933,9.934 V 0"
             style="fill:none;stroke:#000000;stroke-width:15;stroke-linecap:round;stroke-linejoin:round;stroke-miterlimit:10;stroke-dasharray:none;stroke-opacity:1"
             id="path2577" /></g><g
           id="g2579"
           transform="translate(380.1367,422.416)"><path
             d="M 0,0 V -41.361"
             style="fill:none;stroke:#000000;stroke-width:15;stroke-linecap:round;stroke-linejoin:round;stroke-miterlimit:10;stroke-dasharray:none;stroke-opacity:1"
             id="path2581" /></g><g
           id="g2583"
           transform="translate(431.667,377.0107)"><path
             d="M 0,0 V 45.405"
             style="fill:none;stroke:#000000;stroke-width:15;stroke-linecap:round;stroke-linejoin:round;stroke-miterlimit:10;stroke-dasharray:none;stroke-opacity:1"
             id="path2585" /></g><g
           id="g2587"
           transform="translate(345.6631,306.0937)"><path
             d="M 0,0 71.012,27.259 C 87.537,33.603 95.054,52.762 87.251,68.65 79.447,84.538 59.689,90.302 44.567,81.102 L -46.981,25.405"
             style="fill:none;stroke:#000000;stroke-width:15;stroke-linecap:round;stroke-linejoin:round;stroke-miterlimit:10;stroke-dasharray:none;stroke-opacity:1"
             id="path2589" /></g><g
           id="g2591"
           transform="translate(402.5049,267.8867)"><path
             d="m 0,0 -89.108,59.895 c -10.674,7.175 -25.181,3.959 -31.823,-7.055 -6.899,-11.442 -2.368,-26.34 9.734,-32.002 l 93.128,-43.57"
             style="fill:none;stroke:#000000;stroke-width:15;stroke-linecap:round;stroke-linejoin:round;stroke-miterlimit:10;stroke-dasharray:none;stroke-opacity:1"
             id="path2593" /></g><g
           id="g2595"
           transform="translate(423.9326,248.0957)"><path
             d="m 0,0 c 0,-10.974 -8.896,-19.869 -19.869,-19.869 -10.974,0 -19.87,8.895 -19.87,19.869 0,10.974 8.896,19.87 19.87,19.87 C -8.896,19.87 0,10.974 0,0 Z"
             style="fill:none;stroke:#000000;stroke-width:15;stroke-linecap:round;stroke-linejoin:round;stroke-miterlimit:10;stroke-dasharray:none;stroke-opacity:1"
             id="path2597" /></g><g
           id="g2599"
           transform="translate(496.7705,92.8184)"><path
             d="m 0,0 v 0 c -7.631,12.663 -20.245,21.524 -34.746,24.408 l -66.462,13.217 c -13.459,2.677 -26.249,9.954 -37.62,17.636 L -186.994,87.8 c -17.052,11.519 -37.16,17.675 -57.738,17.675 h -88.601 c -27.231,0 -53.347,-10.818 -72.603,-30.074 -14.084,-14.084 -31.967,-23.758 -51.462,-27.842 -18.458,-3.867 -31.679,-20.143 -31.679,-39.002 v -59.653 c 0,-5.544 3.265,-10.568 8.331,-12.819 l 12.6,-5.601 c 6.958,-3.091 14.998,0.692 17.141,7.998 5.181,17.656 20.874,31.345 40.845,32.664 20.987,1.385 40.431,-12.126 46.483,-32.27 0.045,-0.15 0.089,-0.302 0.133,-0.452 3.172,-10.956 13.093,-18.568 24.499,-18.568 h 208.883 c 6.334,0 11.724,4.718 12.438,11.012 1.188,10.453 5.986,20.571 14.404,28.334 17.309,15.961 44.377,15.961 61.686,0 7.871,-7.258 12.576,-16.574 14.126,-26.298 1.198,-7.524 7.704,-13.048 15.323,-13.048 10.892,0 19.721,8.83 19.721,19.721 v 33.315 C 7.536,-17.555 4.931,-8.183 0,0 Z"
             style="fill:none;stroke:#000000;stroke-width:15;stroke-linecap:round;stroke-linejoin:round;stroke-miterlimit:10;stroke-dasharray:none;stroke-opacity:1"
             id="path2601" /></g><g
           id="g2603"
           transform="translate(217.7798,121.6064)"><path
             d="m 0,0 -0.658,45.691 c 0,4.049 3.003,4.909 4.838,4.909 h 31.173 c 23.152,0 37.156,-10.022 58.354,-25.192 10.174,-7.282 21.705,-15.534 36.428,-24.215 4.051,-2.388 6.568,-6.836 6.568,-11.606 v -59.648 c 0,-5.588 -4.547,-10.135 -10.135,-10.135 H 5.925 c -2.63,0 -4.8,2.139 -4.838,4.769 l -0.646,44.795"
             style="fill:none;stroke:#000000;stroke-width:15;stroke-linecap:round;stroke-linejoin:round;stroke-miterlimit:10;stroke-dasharray:none;stroke-opacity:1"
             id="path2605" /></g><g
           id="g2607"
           transform="translate(164.7021,41.335)"><path
             d="m 0,0 c -1.983,0 -3.728,1.215 -4.443,3.096 -11.142,29.278 -39.675,48.949 -71,48.949 -1.521,0 -4.839,-0.16 -4.946,-0.16 -2.646,0 -4.799,2.128 -4.799,4.743 v 26.233 c 0,1.775 0.976,3.386 2.545,4.205 5.947,3.107 17.775,10.17 30.181,22.576 18.952,18.952 40.47,21.382 57.099,21.382 l 10.227,-0.28 c 2.589,-0.07 4.618,-2.154 4.62,-4.745 L 19.563,4.885 C 19.565,2.288 17.454,0.156 14.857,0.132 Z"
             style="fill:none;stroke:#000000;stroke-width:15;stroke-linecap:round;stroke-linejoin:round;stroke-miterlimit:10;stroke-dasharray:none;stroke-opacity:1"
             id="path2609" /></g><g
           id="g2611"
           transform="translate(496.4697,93.2881)"><path
             d="m 0,0 h -6.749 c -8.115,0 -14.693,-6.578 -14.693,-14.694 v -11.488 c 0,-2.52 2.043,-4.564 4.564,-4.564 H 7.837"
             style="fill:none;stroke:#000000;stroke-width:15;stroke-linecap:round;stroke-linejoin:round;stroke-miterlimit:10;stroke-dasharray:none;stroke-opacity:1"
             id="path2613" /></g></g></g></g></svg>
