<?xml version="1.0" encoding="UTF-8" standalone="no"?>
<!-- Created with Inkscape (http://www.inkscape.org/) -->

<svg
   version="1.1"
   id="svg807"
   xml:space="preserve"
   width="682.66669"
   height="682.66669"
   viewBox="0 0 682.66669 682.66669"
   xmlns="http://www.w3.org/2000/svg"
   xmlns:svg="http://www.w3.org/2000/svg"><defs
     id="defs811"><clipPath
       clipPathUnits="userSpaceOnUse"
       id="clipPath821"><path
         d="M 0,512 H 512 V 0 H 0 Z"
         id="path819" /></clipPath></defs><g
     id="g813"
     transform="matrix(1.3333333,0,0,-1.3333333,0,682.66667)"><g
       id="g815"><g
         id="g817"
         clip-path="url(#clipPath821)"><g
           id="g823"
           transform="translate(253.2148,493.77)"><path
             d="m 0,0 -241.912,-112.84 c -2.319,-1.082 -3.803,-3.411 -3.803,-5.971 v -33.188 c 0,-4.819 5.005,-8.008 9.373,-5.97 L 0,-47.727 c 1.766,0.824 3.805,0.824 5.57,0 l 236.342,-110.242 c 4.368,-2.038 9.373,1.151 9.373,5.97 v 33.188 c 0,2.56 -1.483,4.889 -3.803,5.971 L 5.57,0 C 3.805,0.824 1.766,0.824 0,0 Z"
             style="fill:none;stroke:#000000;stroke-width:15;stroke-linecap:round;stroke-linejoin:round;stroke-miterlimit:10;stroke-dasharray:none;stroke-opacity:1"
             id="path825" /></g><g
           id="g827"
           transform="translate(36.6406,313.7383)"><path
             d="m 0,0 v -284.397 c 0,-6.478 5.251,-11.729 11.729,-11.729 H 426.99 c 6.478,0 11.729,5.251 11.729,11.729 V 0.365"
             style="fill:none;stroke:#000000;stroke-width:15;stroke-linecap:round;stroke-linejoin:round;stroke-miterlimit:10;stroke-dasharray:none;stroke-opacity:1"
             id="path829" /></g><g
           id="g831"
           transform="translate(418.8652,17.6123)"><path
             d="m 0,0 v 283.364 c 0,6.696 -5.428,12.124 -12.123,12.124 h -301.484 c -6.696,0 -12.123,-5.428 -12.123,-12.124 L -325.73,0"
             style="fill:none;stroke:#000000;stroke-width:15;stroke-linecap:round;stroke-linejoin:round;stroke-miterlimit:10;stroke-dasharray:none;stroke-opacity:1"
             id="path833" /></g><g
           id="g835"
           transform="translate(93.1348,276.2998)"><path
             d="M 0,0 H 325.73"
             style="fill:none;stroke:#000000;stroke-width:15;stroke-linecap:round;stroke-linejoin:round;stroke-miterlimit:10;stroke-dasharray:none;stroke-opacity:1"
             id="path837" /></g><g
           id="g839"
           transform="translate(371.9502,239.5259)"><path
             d="M 0,0 H 46.915"
             style="fill:none;stroke:#000000;stroke-width:15;stroke-linecap:round;stroke-linejoin:round;stroke-miterlimit:10;stroke-dasharray:none;stroke-opacity:1"
             id="path841" /></g><g
           id="g843"
           transform="translate(93.1348,239.5259)"><path
             d="M 0,0 H 248.815"
             style="fill:none;stroke:#000000;stroke-width:15;stroke-linecap:round;stroke-linejoin:round;stroke-miterlimit:10;stroke-dasharray:none;stroke-opacity:1"
             id="path845" /></g><g
           id="g847"
           transform="translate(122.627,111.3364)"><path
             d="m 0,0 v -36.742 c 0,-2.222 2.384,-3.629 4.329,-2.555 l 11.63,6.424 c 0.878,0.485 1.943,0.485 2.822,0 l 11.629,-6.424 c 1.945,-1.074 4.33,0.333 4.33,2.555 L 34.74,0"
             style="fill:none;stroke:#000000;stroke-width:15;stroke-linecap:round;stroke-linejoin:round;stroke-miterlimit:10;stroke-dasharray:none;stroke-opacity:1"
             id="path849" /></g><g
           id="g851"
           transform="translate(186.8594,17.6123)"><path
             d="m 0,0 v 93.724 h 85.981 c 4.277,0 7.743,-3.466 7.743,-7.742 L 93.724,0"
             style="fill:none;stroke:#000000;stroke-width:15;stroke-linecap:round;stroke-linejoin:round;stroke-miterlimit:10;stroke-dasharray:none;stroke-opacity:1"
             id="path853" /></g><g
           id="g855"
           transform="translate(216.3506,111.3364)"><path
             d="m 0,0 v -36.742 c 0,-2.222 2.385,-3.629 4.33,-2.555 l 11.63,6.424 c 0.878,0.485 1.943,0.485 2.822,0 l 11.629,-6.424 c 1.945,-1.074 4.33,0.333 4.33,2.555 V 0"
             style="fill:none;stroke:#000000;stroke-width:15;stroke-linecap:round;stroke-linejoin:round;stroke-miterlimit:10;stroke-dasharray:none;stroke-opacity:1"
             id="path857" /></g><g
           id="g859"
           transform="translate(93.1348,205.061)"><path
             d="m 0,0 h 85.982 c 4.276,0 7.743,-3.466 7.743,-7.742 V -93.725 H 0"
             style="fill:none;stroke:#000000;stroke-width:15;stroke-linecap:round;stroke-linejoin:round;stroke-miterlimit:10;stroke-dasharray:none;stroke-opacity:1"
             id="path861" /></g><g
           id="g863"
           transform="translate(122.627,205.061)"><path
             d="m 0,0 v -36.742 c 0,-2.222 2.384,-3.63 4.329,-2.555 l 11.63,6.424 c 0.878,0.485 1.943,0.485 2.822,0 l 11.629,-6.424 c 1.945,-1.075 4.33,0.333 4.33,2.555 L 34.74,0"
             style="fill:none;stroke:#000000;stroke-width:15;stroke-linecap:round;stroke-linejoin:round;stroke-miterlimit:10;stroke-dasharray:none;stroke-opacity:1"
             id="path865" /></g></g></g></g></svg>
