<?xml version="1.0" encoding="UTF-8" standalone="no"?>
<!-- Created with Inkscape (http://www.inkscape.org/) -->

<svg
   version="1.1"
   id="svg711"
   xml:space="preserve"
   width="682.66669"
   height="682.66669"
   viewBox="0 0 682.66669 682.66669"
   xmlns="http://www.w3.org/2000/svg"
   xmlns:svg="http://www.w3.org/2000/svg"><defs
     id="defs715"><clipPath
       clipPathUnits="userSpaceOnUse"
       id="clipPath741"><path
         d="M 0,512 H 512 V 0 H 0 Z"
         id="path739" /></clipPath></defs><g
     id="g717"
     transform="matrix(1.3333333,0,0,-1.3333333,0,682.66667)"><g
       id="g719"
       transform="translate(287,336.2266)"><path
         d="M 0,0 H 82.65"
         style="fill:none;stroke:#000000;stroke-width:15;stroke-linecap:round;stroke-linejoin:round;stroke-miterlimit:10;stroke-dasharray:none;stroke-opacity:1"
         id="path721" /></g><g
       id="g723"
       transform="translate(287,295.1646)"><path
         d="M 0,0 H 41.325"
         style="fill:none;stroke:#000000;stroke-width:15;stroke-linecap:round;stroke-linejoin:round;stroke-miterlimit:10;stroke-dasharray:none;stroke-opacity:1"
         id="path725" /></g><g
       id="g727"
       transform="translate(287,179.5425)"><path
         d="M 0,0 H 82.65"
         style="fill:none;stroke:#000000;stroke-width:15;stroke-linecap:round;stroke-linejoin:round;stroke-miterlimit:10;stroke-dasharray:none;stroke-opacity:1"
         id="path729" /></g><g
       id="g731"
       transform="translate(287,138.4805)"><path
         d="M 0,0 H 41.325"
         style="fill:none;stroke:#000000;stroke-width:15;stroke-linecap:round;stroke-linejoin:round;stroke-miterlimit:10;stroke-dasharray:none;stroke-opacity:1"
         id="path733" /></g><g
       id="g735"><g
         id="g737"
         clip-path="url(#clipPath741)"><g
           id="g743"
           transform="translate(111.8096,88.1479)"><path
             d="m 0,0 v -36.656 c 0,-5.204 4.22,-9.424 9.425,-9.424 h 269.531 c 5.205,0 9.424,4.22 9.424,9.424 v 357.772 c 0,5.205 -4.219,9.424 -9.424,9.424 H 9.425 C 4.22,330.54 0,326.321 0,321.116 V 30"
             style="fill:none;stroke:#000000;stroke-width:15;stroke-linecap:round;stroke-linejoin:round;stroke-miterlimit:10;stroke-dasharray:none;stroke-opacity:1"
             id="path745" /></g><g
           id="g747"
           transform="translate(256,452.1011)"><path
             d="m 0,0 c -7.956,0 -14.405,6.45 -14.405,14.405 0,7.956 6.449,14.406 14.405,14.406 7.956,0 14.405,-6.45 14.405,-14.406 C 14.405,6.45 7.956,0 0,0 Z M 76.097,12.866 H 49.195 c -4.073,0 -7.644,2.807 -8.507,6.787 C 36.623,38.387 19.951,52.42 0,52.42 c -19.951,0 -36.623,-14.033 -40.688,-32.767 -0.863,-3.98 -4.435,-6.787 -8.507,-6.787 h -26.902 c -4.823,0 -8.732,-3.91 -8.732,-8.733 V -33.413 H 84.829 V 4.133 c 0,4.823 -3.909,8.733 -8.732,8.733 z"
             style="fill:none;stroke:#000000;stroke-width:15;stroke-linecap:round;stroke-linejoin:round;stroke-miterlimit:10;stroke-dasharray:none;stroke-opacity:1"
             id="path749" /></g><g
           id="g751"
           transform="translate(434.7793,353.1074)"><path
             d="m 0,0 v 83.601 c 0,8.501 -6.892,15.393 -15.394,15.393 H -93.95"
             style="fill:none;stroke:#000000;stroke-width:15;stroke-linecap:round;stroke-linejoin:round;stroke-miterlimit:10;stroke-dasharray:none;stroke-opacity:1"
             id="path753" /></g><g
           id="g755"
           transform="translate(171.1709,452.1011)"><path
             d="M 0,0 H -78.558 C -87.059,0 -93.95,-6.892 -93.95,-15.393 v -413.836 c 0,-8.501 6.891,-15.393 15.392,-15.393 h 326.773 c 8.502,0 15.393,6.892 15.393,15.393 v 300.235"
             style="fill:none;stroke:#000000;stroke-width:15;stroke-linecap:round;stroke-linejoin:round;stroke-miterlimit:10;stroke-dasharray:none;stroke-opacity:1"
             id="path757" /></g><g
           id="g759"
           transform="translate(238.6318,266.2212)"><path
             d="m 0,0 h -86.982 c -3.304,0 -5.984,2.679 -5.984,5.983 v 86.983 c 0,3.304 2.68,5.983 5.984,5.983 H 0 c 3.305,0 5.983,-2.679 5.983,-5.983 V 5.983 C 5.983,2.679 3.305,0 0,0 Z"
             style="fill:none;stroke:#000000;stroke-width:15;stroke-linecap:round;stroke-linejoin:round;stroke-miterlimit:10;stroke-dasharray:none;stroke-opacity:1"
             id="path761" /></g><g
           id="g763"
           transform="translate(176.8027,365.1699)"><path
             d="m 0,0 v -38.791 c 0,-2.345 2.518,-3.831 4.57,-2.696 l 12.279,6.781 c 0.926,0.513 2.051,0.513 2.979,0 l 12.277,-6.781 c 2.054,-1.135 4.572,0.351 4.572,2.696 V 0"
             style="fill:none;stroke:#000000;stroke-width:15;stroke-linecap:round;stroke-linejoin:round;stroke-miterlimit:10;stroke-dasharray:none;stroke-opacity:1"
             id="path765" /></g><g
           id="g767"
           transform="translate(238.6318,109.5371)"><path
             d="m 0,0 h -86.982 c -3.304,0 -5.984,2.679 -5.984,5.983 v 86.982 c 0,3.305 2.68,5.984 5.984,5.984 H 0 c 3.305,0 5.983,-2.679 5.983,-5.984 V 5.983 C 5.983,2.679 3.305,0 0,0 Z"
             style="fill:none;stroke:#000000;stroke-width:15;stroke-linecap:round;stroke-linejoin:round;stroke-miterlimit:10;stroke-dasharray:none;stroke-opacity:1"
             id="path769" /></g><g
           id="g771"
           transform="translate(176.8027,208.4858)"><path
             d="m 0,0 v -38.791 c 0,-2.346 2.518,-3.831 4.57,-2.696 l 12.279,6.781 c 0.926,0.513 2.051,0.513 2.979,0 l 12.277,-6.781 c 2.054,-1.135 4.572,0.35 4.572,2.696 V 0"
             style="fill:none;stroke:#000000;stroke-width:15;stroke-linecap:round;stroke-linejoin:round;stroke-miterlimit:10;stroke-dasharray:none;stroke-opacity:1"
             id="path773" /></g></g></g></g></svg>
